<svg xmlns="http://www.w3.org/2000/svg" xmlns:xlink="http://www.w3.org/1999/xlink" enable-background="new 0 0 100 100" id="Layer_1" version="1.1" viewBox="0 0 100 100" xml:space="preserve"><path d="M70.842,26.126c0-0.076-0.035-0.147-0.049-0.221c0.015-0.081,0.049-0.162,0.049-0.244  c0-2.927-9.332-5.3-20.842-5.3c-2.113,0-4.15,0.081-6.071,0.23l3.362,5.591l-2.281,7.983l2.896,8.998l-7.875-7.605l1.629-7.603  l-5.402-6.272c-4.345,0.971-7.102,2.391-7.102,3.979c0,0.086,0.035,0.17,0.051,0.255c-0.014,0.071-0.051,0.139-0.051,0.211  c0,9.37,7.757,25.769,17.842,28.614v15.804c-8.146,0.921-14.344,5.347-14.344,7.896c0,1.677,34.688,1.518,34.688,0  c0-2.55-6.198-6.976-14.345-7.897V54.741C63.085,51.896,70.842,35.496,70.842,26.126z" fill="#fff"/></svg>
